<?xml version="1.0" standalone="no"?>
<!DOCTYPE svg PUBLIC "-//W3C//DTD SVG 20010904//EN"
 "http://www.w3.org/TR/2001/REC-SVG-20010904/DTD/svg10.dtd">
<svg version="1.0" xmlns="http://www.w3.org/2000/svg"
 width="196.000000pt" height="300.000000pt" viewBox="0 0 196.000000 300.000000"
 preserveAspectRatio="xMidYMid meet">
<metadata>
Created by potrace 1.10, written by Peter Selinger 2001-2011
</metadata>
<g transform="translate(0.000000,300.000000) scale(0.100000,-0.100000)"
fill="#fff" stroke="none">
<path d="M792 2988 c-17 -17 -15 -48 3 -55 22 -8 30 4 15 22 -10 12 -10 15 4
15 37 0 56 -20 56 -56 0 -51 26 -100 75 -140 23 -20 48 -47 57 -62 14 -24 34
-152 24 -152 -2 0 -13 15 -24 34 -26 44 -117 88 -238 116 -65 15 -98 28 -114
45 -39 42 -23 127 30 155 18 9 20 8 20 -15 0 -32 23 -29 28 3 5 31 -16 62 -41
62 -52 0 -127 -89 -127 -151 0 -50 50 -115 115 -151 56 -30 85 -61 121 -131
28 -55 25 -70 -9 -40 -12 11 -51 35 -85 53 -51 27 -72 46 -104 93 -66 98 -181
155 -288 144 -101 -11 -142 -45 -121 -99 19 -51 93 -65 99 -20 3 20 0 23 -17
17 -24 -7 -41 19 -23 37 27 27 143 -2 182 -46 103 -115 127 -138 159 -157 65
-39 101 -64 101 -71 0 -15 -59 -17 -105 -3 -71 21 -123 19 -191 -9 -82 -33
-126 -40 -169 -26 -30 10 -41 22 -63 68 -31 66 -80 105 -126 100 -16 -2 -31
-8 -33 -15 -3 -7 3 -9 16 -6 32 8 55 -36 42 -84 -15 -54 -15 -58 22 -99 44
-52 102 -75 186 -76 64 0 69 -2 94 -33 l25 -32 -21 -25 c-14 -16 -60 -40 -122
-63 -105 -40 -175 -93 -175 -131 1 -35 38 -129 53 -132 23 -5 47 27 47 62 0
41 43 85 91 92 l34 6 1 -84 c3 -146 58 -254 177 -344 98 -74 233 -127 345
-136 19 -1 36 -6 38 -10 15 -24 -44 -98 -239 -297 -208 -212 -317 -347 -317
-394 0 -16 5 -19 30 -13 31 6 107 53 142 88 40 40 28 6 -39 -105 -65 -110 -69
-115 -96 -110 -32 6 -77 -14 -77 -34 0 -15 26 -18 35 -3 3 5 11 10 17 10 6 0
4 -8 -5 -18 -17 -19 -23 -42 -10 -42 4 0 20 12 35 27 15 15 28 22 28 15 0 -6
-4 -14 -10 -17 -13 -8 -13 -35 0 -35 10 0 20 20 34 63 5 17 7 17 32 1 19 -13
24 -23 19 -41 -6 -25 12 -33 21 -8 8 19 38 19 58 0 8 -8 25 -14 37 -13 18 3
23 -3 26 -27 2 -16 13 -75 24 -130 52 -249 115 -403 150 -368 13 13 29 218 29
376 0 116 3 147 13 147 8 0 17 -3 21 -7 7 -7 10 -8 97 -19 l57 -7 6 -43 c3
-24 9 -111 12 -194 6 -130 9 -150 23 -148 22 4 112 189 152 310 33 100 39 107
89 107 8 0 25 3 38 7 13 3 22 3 21 -2 -3 -21 2 -30 19 -30 9 -1 24 -4 33 -8 9
-4 25 1 40 13 20 16 22 23 13 38 -6 10 -26 21 -45 24 l-34 5 28 14 c15 7 27
17 27 22 0 10 -11 10 -30 -2 -11 -7 -17 2 -28 43 -7 29 -46 121 -88 206 -41
85 -72 156 -70 158 2 3 21 -15 42 -39 140 -160 304 -276 360 -254 29 11 -63
123 -262 321 -198 197 -265 274 -290 333 -28 67 -21 77 54 81 149 7 341 120
427 249 31 47 65 145 65 189 0 65 28 34 79 -89 62 -149 118 -204 184 -179 31
12 57 48 57 78 0 13 5 23 10 23 23 0 60 50 60 80 0 50 -16 70 -55 70 -41 0
-76 -40 -59 -67 11 -18 30 -14 26 5 -5 23 18 44 34 31 21 -17 17 -28 -23 -65
-60 -55 -104 -42 -148 44 -34 68 -117 182 -150 208 -19 14 -35 33 -35 41 0 7
-11 36 -25 63 -14 27 -25 52 -25 55 0 11 150 -96 160 -114 5 -11 10 -42 10
-70 0 -42 5 -56 29 -83 29 -32 31 -33 113 -33 46 0 92 4 103 8 20 8 20 9 0 23
-14 10 -35 13 -80 8 -94 -10 -137 26 -100 82 13 20 19 23 30 14 8 -7 13 -21
12 -32 -1 -12 4 -23 11 -25 21 -8 14 53 -11 84 -13 15 -33 44 -45 63 -11 19
-30 41 -41 48 -28 16 -27 32 2 32 101 0 211 106 146 140 -35 19 -63 9 -69 -25
-11 -67 -119 -82 -234 -31 -29 13 -68 27 -85 31 -38 8 -41 25 -5 25 41 0 87
27 114 66 13 20 33 39 43 43 34 13 160 -9 217 -36 30 -15 60 -29 65 -31 28
-13 -31 37 -77 65 -60 36 -168 58 -232 47 -26 -4 -60 -22 -95 -51 -64 -52
-106 -75 -128 -71 -11 2 3 20 46 57 75 65 85 84 100 180 14 88 15 91 47 91 20
0 29 -9 43 -44 27 -62 56 -86 106 -86 58 0 87 32 93 103 3 38 -1 63 -12 86
-34 66 -99 63 -112 -5 -8 -46 11 -69 25 -31 15 38 47 36 56 -2 8 -39 -9 -71
-40 -71 -27 0 -74 37 -93 72 -15 27 -43 47 -85 59 -43 12 -83 -30 -92 -97 -14
-114 -13 -111 -80 -168 -36 -30 -61 -57 -57 -60 7 -4 47 -1 47 4 0 1 10 3 21
5 20 4 20 3 -5 -23 -54 -56 -57 -57 -109 -31 -58 29 -64 38 -45 58 9 8 22 30
30 49 14 34 39 35 30 1 -3 -10 1 -23 9 -30 11 -9 16 -6 24 17 8 21 7 38 -4 72
-14 41 -14 46 4 80 10 21 28 51 39 67 25 36 27 74 6 101 -15 19 -16 18 -33 -6
-9 -14 -43 -59 -74 -101 -60 -80 -69 -109 -43 -146 11 -16 13 -28 6 -46 -10
-26 -37 -57 -50 -57 -18 0 -32 84 -26 154 9 92 -6 129 -75 187 -28 24 -67 68
-86 97 -19 29 -49 61 -66 72 -37 22 -88 26 -106 8z m158 -130 c0 -6 7 -20 17
-30 9 -10 11 -18 5 -18 -11 0 -42 38 -42 52 0 5 5 8 10 8 6 0 10 -5 10 -12z
m94 -97 c38 -38 38 -39 37 -122 0 -46 4 -101 10 -122 6 -22 8 -41 6 -44 -3 -2
-27 -1 -54 3 -47 6 -52 9 -78 54 -26 44 -68 80 -80 69 -2 -3 11 -27 30 -54 39
-54 42 -65 20 -65 -8 0 -23 20 -33 44 -20 43 -38 63 -49 52 -3 -3 -2 -13 2
-23 5 -10 7 -22 6 -27 -1 -4 4 -14 10 -22 6 -8 9 -14 6 -14 -3 0 -13 -3 -23
-7 -11 -4 -15 -3 -10 5 4 6 3 19 -2 29 -6 10 -16 32 -23 48 -7 17 -26 44 -42
61 -19 21 -25 34 -18 39 16 9 141 -34 148 -51 3 -8 8 -12 12 -10 4 3 26 -9 50
-25 24 -16 48 -29 52 -29 14 0 39 63 39 99 0 40 -55 145 -70 136 -6 -4 -10 -1
-10 4 0 22 27 10 64 -28z m-474 -160 c0 -5 7 -12 16 -15 8 -3 12 -10 9 -16 -3
-5 -17 2 -31 17 -13 14 -24 23 -24 19 0 -4 -9 2 -21 13 -13 11 -18 24 -14 32
5 7 4 10 -3 5 -7 -4 -10 2 -9 14 1 18 6 16 39 -20 21 -22 38 -45 38 -49z m679
-3 c0 -33 -2 -38 -9 -23 -12 28 -12 65 0 65 6 0 10 -19 9 -42z m-1104 -179
c18 -33 83 -67 130 -68 17 0 71 14 120 31 70 24 99 30 128 24 40 -7 46 -19 21
-43 -13 -14 -19 -14 -52 -1 -23 9 -46 12 -57 7 -11 -4 -16 -8 -11 -8 5 -1 1
-10 -10 -22 -14 -16 -15 -22 -5 -28 7 -5 11 -18 9 -30 -3 -22 -3 -22 -23 -3
-40 37 -71 50 -138 56 -37 4 -77 10 -90 15 -48 19 -76 62 -63 98 8 19 22 9 41
-28z m722 13 c-2 -4 -7 -16 -11 -27 -7 -19 -8 -19 -22 5 -9 14 -13 17 -10 7 3
-11 2 -15 -4 -12 -17 10 -11 25 13 34 22 9 40 5 34 -7z m281 -21 c188 -52 303
-156 369 -338 39 -108 26 -237 -34 -340 -56 -96 -229 -217 -310 -217 -18 0
-28 -3 -21 -7 16 -10 -114 -22 -175 -16 -29 3 -94 12 -146 21 -51 9 -101 14
-111 11 -14 -4 -16 0 -12 25 4 26 8 31 30 28 15 -2 26 -10 28 -21 3 -25 14
-35 14 -13 0 21 51 47 58 28 2 -6 11 -12 19 -12 9 0 13 6 9 15 -8 21 43 42 56
23 4 -7 8 -16 8 -20 0 -5 5 -8 11 -8 6 0 8 8 5 18 -8 25 41 51 50 27 4 -8 10
-13 15 -10 4 3 6 12 3 19 -3 9 9 19 35 29 36 15 58 33 49 42 -1 2 -17 7 -33
11 -27 6 -29 6 -17 -9 11 -13 10 -17 -9 -27 -17 -9 -23 -9 -29 0 -4 7 -13 9
-19 6 -6 -4 -9 -11 -6 -16 6 -9 -25 -30 -44 -30 -6 0 -11 7 -11 15 0 8 -4 15
-10 15 -5 0 -10 -9 -10 -20 0 -11 -6 -20 -14 -20 -8 0 -21 -3 -30 -6 -11 -4
-16 -1 -16 10 0 9 -4 16 -10 16 -5 0 -10 -9 -10 -20 0 -11 -2 -20 -4 -20 -2 0
-11 -3 -20 -6 -11 -4 -16 -1 -16 10 0 9 -4 16 -10 16 -5 0 -10 -4 -10 -10 0
-5 -11 -10 -25 -10 -14 0 -25 4 -25 10 0 5 -12 7 -27 4 -38 -8 -84 11 -77 31
7 17 -7 20 -23 4 -14 -14 -82 27 -94 57 -4 13 -13 24 -19 24 -8 0 -8 -6 0 -20
17 -32 -6 -24 -34 12 -25 32 -26 32 -40 13 -14 -19 -16 -17 -43 40 -26 55 -28
69 -28 180 0 105 3 125 22 162 36 66 41 58 15 -20 -26 -77 -33 -192 -15 -237
8 -19 9 -6 5 53 -10 159 34 257 163 362 77 63 87 72 65 60 -40 -23 -80 -54
-134 -105 -32 -30 -53 -45 -47 -33 6 11 39 46 73 77 64 58 143 102 245 137 53
18 57 18 69 1 7 -9 14 -20 14 -23 0 -8 -47 -29 -64 -29 -8 0 -18 -6 -24 -13
-9 -10 -6 -17 8 -30 19 -16 28 -50 12 -44 -4 1 -7 -2 -7 -8 0 -5 6 -9 13 -7
10 3 11 -1 4 -15 -8 -14 -5 -25 13 -49 21 -28 22 -34 10 -50 -24 -32 -18 -50
8 -26 l24 22 19 -21 c18 -20 18 -21 0 -35 -10 -7 -24 -15 -30 -17 -6 -2 -8 -7
-4 -11 3 -4 20 0 38 9 17 9 39 13 49 10 17 -5 18 -10 8 -36 -10 -25 -16 -29
-41 -27 -16 2 -31 -2 -33 -9 -3 -8 5 -13 20 -13 21 0 24 -4 19 -22 -5 -22 -4
-22 14 -7 10 9 25 14 32 12 6 -3 12 2 12 10 0 9 -4 17 -10 19 -5 2 -7 13 -4
26 5 17 11 21 25 17 23 -8 25 8 3 26 -14 12 -14 14 3 20 17 7 16 8 -3 14 -15
5 -23 17 -26 36 -4 26 -1 31 24 36 34 7 37 23 5 23 -13 0 -28 5 -35 12 -17 17
-15 55 3 62 21 8 19 23 -5 29 -26 7 -28 61 -2 76 9 6 11 11 5 11 -14 0 -18 42
-5 54 13 14 154 -4 260 -33z m-289 -78 c0 -31 -2 -34 -9 -18 -12 28 -12 55 0
55 6 0 10 -17 9 -37z m-29 -8 c0 -32 -2 -35 -30 -35 -25 0 -30 4 -30 25 0 23
22 44 48 45 7 0 12 -14 12 -35z m-337 8 c11 -6 -12 -33 -29 -33 -12 0 -34 29
-34 45 0 5 48 -4 63 -12z m352 -100 c13 -30 12 -33 -11 -48 -23 -15 -25 -15
-33 7 -4 13 -11 36 -15 51 -6 26 -5 28 20 25 18 -2 30 -12 39 -35z m677 11
c17 -9 40 -17 52 -19 54 -7 71 -16 72 -40 1 -14 0 -25 -2 -25 -12 0 -61 27
-70 39 -6 8 -28 15 -48 16 -23 2 -45 11 -57 24 -20 21 -20 21 1 21 12 0 35 -7
52 -16z m-639 -111 c5 -24 3 -33 -7 -33 -13 0 -62 47 -55 53 16 14 45 25 50
19 4 -4 9 -22 12 -39z m-570 -50 c-3 -7 -19 -13 -37 -13 -17 0 -41 -7 -52 -15
-12 -8 -24 -12 -27 -9 -2 3 -14 -8 -26 -23 -43 -58 -45 -59 -51 -33 -4 19 1
30 21 48 27 22 110 64 137 68 8 1 16 5 20 8 9 9 21 -15 15 -31z m1460 -357
c18 -8 40 -17 51 -20 15 -5 16 -9 6 -21 -18 -22 -44 -18 -74 11 -42 43 -36 53
17 30z m-1298 -46 c9 0 15 -9 15 -21 0 -19 -2 -20 -17 -8 -50 40 -63 54 -63
68 1 11 8 8 25 -11 13 -16 31 -28 40 -28z m65 -31 c0 -12 -29 -24 -37 -16 -3
4 -3 13 0 21 6 16 37 11 37 -5z m48 -47 c3 -20 1 -21 -22 -11 -33 15 -35 42
-3 37 14 -2 23 -11 25 -26z m71 -8 c21 -5 31 -12 31 -25 0 -22 -3 -23 -47 -7
-18 7 -33 18 -33 25 0 15 5 15 49 7z m281 -144 c21 -13 0 -30 -25 -20 -14 6
-15 9 -5 10 10 1 9 4 -5 10 -20 9 -20 9 0 9 11 0 27 -4 35 -9z m-36 -117 c19
7 19 6 6 -28 -9 -23 -13 -25 -25 -15 -8 7 -15 24 -15 39 0 19 3 22 9 12 5 -8
16 -11 25 -8z m-49 -22 c3 -10 14 -26 25 -36 23 -21 27 -55 6 -55 -8 0 -22 10
-30 22 -9 12 -18 19 -21 16 -3 -3 4 -16 15 -31 27 -33 27 -56 0 -32 -11 10
-20 13 -20 7 0 -7 9 -17 20 -24 11 -7 20 -21 20 -30 0 -11 -8 -18 -20 -18 -13
0 -20 7 -20 19 0 11 -12 29 -26 40 -21 16 -23 23 -15 40 6 11 11 31 11 45 0
24 23 56 40 56 5 0 11 -8 15 -19z m165 1 c0 -18 65 -201 95 -266 17 -37 22
-65 21 -113 -1 -34 -5 -65 -8 -68 -3 -3 -18 -1 -33 5 -32 12 -40 8 -31 -17 6
-14 9 -15 16 -4 7 12 12 12 34 -2 27 -18 40 -22 33 -9 -3 4 -2 34 2 66 l6 60
24 -47 c13 -25 21 -53 18 -62 -8 -19 -48 -35 -87 -35 -51 0 -81 -60 -46 -90 8
-6 12 -18 9 -26 -3 -8 0 -14 7 -14 6 0 8 5 5 10 -3 6 0 10 8 10 21 0 50 37 43
55 -6 17 -34 31 -43 21 -4 -3 1 -12 10 -19 11 -8 14 -17 8 -26 -8 -12 -12 -12
-25 -2 -21 18 -20 48 2 60 10 5 33 6 52 2 33 -6 35 -9 38 -50 3 -34 -3 -52
-24 -82 l-27 -39 -154 4 c-98 2 -156 0 -160 -7 -3 -6 -1 -7 5 -3 6 4 21 2 33
-5 13 -7 70 -11 140 -12 131 0 156 8 185 65 12 23 15 47 11 89 -4 47 -2 61 13
74 16 15 18 15 24 0 3 -9 1 -25 -4 -35 -17 -31 -11 -67 15 -98 15 -19 21 -33
15 -37 -5 -3 -10 -1 -10 6 0 10 -3 10 -12 1 -15 -15 -10 -20 24 -24 31 -4 41
-12 44 -33 2 -11 -8 -15 -37 -15 -27 0 -39 -4 -39 -14 0 -15 -29 -30 -39 -21
-3 3 1 11 9 16 10 7 3 8 -25 3 -54 -9 -83 -26 -32 -19 21 3 37 1 37 -5 0 -6
-6 -10 -12 -11 -7 0 -26 -2 -43 -4 -16 -2 -32 1 -36 7 -5 7 -12 7 -25 -2 -18
-11 -18 -11 1 -5 15 5 17 3 9 -5 -20 -20 -48 -6 -61 30 l-12 35 0 -32 c-1 -27
-4 -30 -23 -25 -13 3 -26 10 -30 16 -5 8 -8 7 -8 -1 0 -7 -9 -13 -21 -13 -11
0 -17 5 -14 10 3 6 1 10 -4 10 -6 0 -11 -4 -11 -9 0 -4 -28 -2 -62 6 -72 17
-93 29 -33 19 29 -5 36 -4 25 3 -8 6 -23 11 -32 11 -35 0 -5 54 32 58 52 5 56
12 22 38 -33 26 -38 39 -23 63 8 12 14 12 40 1 17 -7 28 -17 24 -23 -4 -7 0
-8 11 -4 10 4 22 7 27 7 4 0 6 7 3 15 -4 8 -1 15 6 15 8 0 11 9 7 26 -3 18 -1
22 6 15 7 -7 16 -1 29 20 19 32 18 47 -1 34 -6 -3 -9 -11 -6 -16 12 -18 -18
-9 -36 12 -10 11 -22 18 -27 15 -11 -7 -62 16 -62 27 0 5 -4 5 -10 2 -18 -11
-11 -23 22 -34 l31 -11 -24 -28 c-13 -15 -26 -29 -27 -32 -2 -3 -15 8 -28 24
-14 15 -27 26 -30 23 -6 -5 16 -48 29 -58 13 -10 -4 -39 -24 -39 -10 0 -19 -4
-19 -10 0 -5 5 -10 10 -10 6 0 10 -10 10 -22 -1 -22 -1 -22 -15 -4 -8 11 -18
16 -22 13 -3 -4 3 -17 15 -30 l21 -22 -22 -48 c-12 -26 -29 -47 -37 -48 -90
-6 -128 -3 -118 8 7 9 16 10 29 2 13 -6 19 -6 19 1 0 5 -4 10 -8 10 -5 0 -17
7 -28 16 -10 8 -13 13 -6 9 6 -3 12 -2 12 3 0 6 -8 13 -17 16 -15 6 -15 8 -3
16 23 14 8 18 -28 8 -23 -6 -32 -14 -28 -23 11 -29 -45 -41 -82 -17 -23 15
-30 42 -11 42 5 0 8 4 5 9 -3 5 1 14 9 21 8 7 15 21 15 30 0 10 4 20 9 22 4 2
21 26 36 53 21 39 26 44 20 20 -3 -16 -15 -42 -25 -57 -11 -15 -20 -32 -20
-38 0 -6 -7 -18 -15 -27 -8 -8 -12 -19 -9 -25 4 -6 2 -13 -3 -17 -6 -3 -2 -14
10 -26 17 -17 19 -17 14 -2 -7 20 3 22 23 5 8 -7 7 -4 -3 8 -23 28 -22 35 19
121 19 42 39 94 43 117 6 34 11 41 29 39 12 -2 22 1 22 6 0 22 40 51 71 52
l34 1 -27 12 -27 12 44 42 c50 48 62 79 45 112 -15 27 -1 45 28 36 23 -8 39
-39 23 -44 -6 -2 -11 -10 -11 -18 0 -9 4 -13 9 -10 14 9 71 -15 71 -29 0 -7
-3 -21 -6 -29 -6 -15 -8 -15 -19 1 -8 10 -17 15 -21 11 -4 -5 1 -17 11 -28 14
-15 15 -20 4 -20 -11 0 -11 -2 -1 -9 9 -5 11 -17 6 -34 -7 -31 -11 -32 -38
-12 -11 8 -23 15 -28 15 -14 0 -9 -30 7 -36 8 -4 12 -10 9 -15 -3 -5 3 -10 13
-11 46 -3 93 -19 93 -30 0 -5 10 -8 22 -6 27 4 48 72 29 91 -8 8 -11 1 -11
-25 0 -20 -4 -40 -10 -43 -6 -4 -10 7 -10 27 0 18 -3 43 -6 55 -5 19 -3 21 18
16 18 -5 21 -3 11 7 -10 11 -9 16 5 26 27 20 7 28 -22 9 -14 -10 -26 -13 -26
-7 0 6 -3 18 -7 27 -5 14 -2 16 18 11 22 -6 23 -6 7 7 -10 8 -18 27 -18 42 0
22 4 26 20 22 11 -3 20 -1 20 3 0 5 -9 12 -20 15 -30 10 -24 26 6 19 19 -5 25
-4 20 5 -4 6 -16 11 -27 11 -14 0 -19 7 -19 25 0 22 3 25 26 19 19 -5 25 -4
20 5 -4 6 -15 11 -24 11 -13 0 -14 2 -3 9 10 7 10 10 1 13 -8 2 -10 12 -6 24
5 16 15 20 51 20 33 1 45 -3 45 -14z m130 -164 c0 -24 -17 -23 -25 2 -8 26 4
48 16 29 5 -8 9 -22 9 -31z m-499 -20 c-30 -53 -43 -62 -49 -34 -3 15 55 84
71 85 5 1 -5 -23 -22 -51z m89 40 c-1 -7 -7 -30 -14 -51 -12 -31 -12 -36 -1
-27 8 6 16 21 18 33 4 22 4 22 6 -1 1 -14 -18 -43 -53 -81 -30 -32 -62 -70
-71 -84 -15 -24 -45 -28 -45 -6 0 4 6 6 13 4 13 -5 47 66 47 98 0 10 7 20 15
24 9 3 27 27 41 54 23 46 45 64 44 37z m160 -39 c0 -18 -4 -28 -10 -24 -5 3
-10 20 -10 36 0 18 4 28 10 24 6 -3 10 -20 10 -36z m288 -13 c5 -23 -9 -37
-27 -27 -8 5 -11 16 -6 30 8 25 28 23 33 -3z m25 -43 c-6 -35 -17 -43 -26 -19
-7 17 15 68 24 58 4 -4 5 -22 2 -39z m-618 -3 c7 -22 5 -26 -64 -109 l-45 -54
-8 28 c-7 28 12 72 25 58 4 -3 7 0 7 9 0 15 59 86 72 87 4 1 10 -8 13 -19z
m658 -8 c14 -16 14 -19 -3 -42 -20 -26 -22 -24 -24 33 -2 31 5 34 27 9z m53
-45 c22 -20 23 -27 14 -51 -5 -15 -10 -29 -10 -31 0 -2 19 -18 43 -35 l42 -32
-37 34 c-27 26 -35 41 -31 57 3 11 8 21 12 21 16 0 91 -87 91 -105 0 -13 3
-16 8 -8 5 8 20 -5 45 -39 21 -28 36 -53 33 -55 -12 -12 -106 56 -185 133 -84
80 -85 82 -72 108 8 14 16 26 18 26 2 0 15 -10 29 -23z m-393 -56 c5 -24 7
-45 4 -47 -2 -3 -16 0 -30 5 -19 8 -25 16 -22 31 14 73 35 77 48 11z m-485
-103 c-17 -16 -35 -28 -39 -28 -5 0 -9 -7 -9 -15 0 -8 -7 -15 -15 -15 -12 0
-12 5 3 34 11 21 20 29 24 22 5 -7 8 -4 8 7 0 10 5 15 10 12 6 -3 10 -2 10 4
0 5 -5 13 -11 16 -7 5 -4 14 8 27 18 20 18 20 30 -9 11 -26 9 -30 -19 -55z
m107 23 c-7 -22 -29 -28 -40 -11 -3 6 -1 10 5 10 6 0 9 4 5 9 -3 5 3 11 12 13
24 6 26 3 18 -21z m338 -78 c-5 -33 -16 -42 -28 -23 -5 8 24 65 30 58 2 -2 0
-18 -2 -35z m37 23 c0 -8 3 -21 6 -30 4 -11 0 -16 -13 -16 -16 0 -19 5 -15 30
4 30 22 43 22 16z m350 -73 c0 -7 -7 -13 -15 -13 -10 0 -15 10 -15 33 1 30 1
31 15 13 8 -11 15 -26 15 -33z m20 -56 c5 -17 8 -32 6 -35 -3 -2 -8 7 -12 21
-3 15 -11 25 -16 24 -6 -1 -12 3 -15 9 -2 6 3 11 11 11 9 0 20 -14 26 -30z
m-462 -8 l27 -21 -30 4 c-19 2 -31 9 -33 21 -4 22 4 22 36 -4z m-243 -81 c7
-29 0 -34 -25 -18 -11 7 -11 10 -2 10 9 0 10 5 3 19 -11 19 -3 37 10 24 4 -5
11 -20 14 -35z m59 -63 c10 -8 23 -12 27 -9 5 3 9 -1 9 -8 0 -8 5 -6 11 5 7
11 17 16 29 12 10 -3 21 -1 25 5 3 5 13 10 21 10 21 0 2 -32 -32 -55 -20 -13
-28 -14 -34 -5 -6 9 -9 9 -15 0 -6 -10 -11 -9 -21 5 -8 10 -17 16 -20 12 -10
-9 -34 12 -34 29 0 18 10 17 34 -1z m513 -30 c3 -9 -2 -22 -13 -29 -15 -11
-16 -17 -6 -29 11 -12 7 -16 -23 -21 -19 -4 -35 -11 -35 -17 0 -5 11 -7 24 -3
13 3 26 2 29 -3 9 -14 -83 -198 -93 -187 -4 5 -11 44 -15 86 l-7 77 34 4 33 4
-37 1 c-31 2 -38 6 -38 22 0 11 5 20 10 20 6 0 10 -5 10 -11 0 -20 23 -3 25
19 1 17 -1 19 -12 11 -10 -9 -13 -8 -13 4 0 9 -7 23 -16 31 -18 18 -11 23 46
29 76 8 91 7 97 -8z m-466 -35 c5 0 9 -7 9 -15 0 -8 5 -15 10 -15 6 0 10 7 10
15 0 8 5 15 11 15 6 0 9 -7 5 -15 -3 -8 0 -15 7 -15 9 0 12 -39 10 -157 -2
-211 -1 -203 -14 -179 -8 13 -13 15 -19 6 -5 -8 -13 6 -23 36 -34 111 -49 171
-46 184 2 8 -3 26 -10 39 -11 20 -11 25 0 32 10 6 11 9 2 9 -7 0 -13 7 -13 15
0 13 4 14 20 5 11 -6 20 -7 20 -2 0 6 -10 12 -22 15 -18 5 -19 8 -8 22 7 9 20
13 27 10 8 -3 19 -5 24 -5z"/>
<path d="M1338 2292 c71 -71 132 -206 132 -291 0 -22 5 -43 11 -47 15 -9 6
105 -12 156 -30 84 -102 184 -152 212 -10 5 -1 -8 21 -30z"/>
<path d="M1130 2203 c0 -5 27 -10 61 -11 36 -1 79 -10 106 -22 58 -25 66 -20
16 11 -28 18 -56 25 -110 27 -41 3 -73 0 -73 -5z"/>
<path d="M1113 2135 c-56 -34 -83 -91 -83 -177 0 -60 3 -71 33 -109 48 -64
108 -92 180 -86 107 9 177 84 177 190 0 32 -5 67 -11 79 -6 11 -8 22 -5 25 11
11 36 -66 36 -110 0 -72 -25 -138 -71 -186 -46 -47 -128 -91 -171 -91 -16 0
-28 -5 -28 -11 0 -16 63 -3 126 25 55 25 113 88 139 149 19 45 20 157 1 200
-47 109 -219 164 -323 102z m168 -20 c43 -13 79 -44 72 -62 -5 -12 -3 -14 7
-8 10 6 12 4 7 -8 -8 -21 2 -49 14 -41 5 3 8 -15 7 -40 0 -25 -4 -46 -7 -46
-4 0 -12 -13 -18 -30 -6 -16 -17 -30 -23 -30 -7 0 -9 7 -6 15 21 52 21 51 2
36 -9 -8 -16 -24 -15 -35 3 -40 -1 -44 -52 -61 -86 -29 -159 2 -187 79 -13 34
-12 39 14 81 16 24 33 41 39 37 5 -3 3 3 -5 13 -8 10 -10 16 -4 12 11 -7 80
31 71 39 -3 3 -22 -2 -41 -11 -38 -18 -76 -62 -76 -88 0 -9 -4 -19 -10 -22 -6
-3 -10 4 -10 16 0 27 35 85 56 93 8 3 12 11 8 17 -4 7 -3 9 4 5 6 -3 22 -1 36
5 22 10 24 15 13 27 -9 13 -9 14 1 8 6 -4 12 -3 12 1 0 10 57 8 91 -2z"/>
<path d="M1120 1861 c0 -11 48 -51 61 -51 5 0 9 5 9 10 0 6 -6 10 -13 10 -7 0
-23 9 -35 20 -12 12 -22 16 -22 11z"/>
<path d="M495 2101 c-40 -18 -101 -78 -90 -89 3 -3 20 8 38 26 27 26 93 63
112 62 3 0 5 3 6 8 1 14 -27 12 -66 -7z"/>
<path d="M635 2080 c3 -5 12 -10 19 -10 6 0 34 -14 60 -31 52 -32 75 -34 29
-1 -59 41 -123 66 -108 42z"/>
<path d="M535 2043 c-52 -27 -85 -66 -100 -117 -20 -65 -6 -115 45 -170 37
-40 40 -41 103 -41 55 0 69 4 101 29 72 55 92 122 62 209 -20 55 -8 45 19 -18
22 -48 23 -61 15 -106 -11 -57 -35 -96 -83 -133 -18 -14 -27 -26 -20 -26 22 0
81 60 102 104 29 59 27 117 -6 178 -49 89 -160 132 -238 91z m132 -39 c34 -9
67 -85 59 -136 -18 -110 -142 -167 -214 -100 -70 66 -59 183 23 230 21 12 96
16 132 6z"/>
<path d="M543 1768 c16 -10 79 -10 95 0 6 5 -14 8 -47 8 -32 -1 -54 -4 -48 -8z"/>
<path d="M993 1946 c8 -111 49 -177 129 -211 65 -27 172 -12 223 31 l30 24
-44 -22 c-24 -12 -68 -24 -96 -26 -58 -5 -129 13 -119 30 5 7 2 8 -5 3 -18
-10 -60 32 -83 84 -12 25 -21 68 -21 102 -1 33 -6 59 -11 59 -5 0 -6 -32 -3
-74z"/>
<path d="M1478 1930 c-4 -8 -9 -33 -13 -55 -16 -102 -83 -187 -193 -249 l-62
-35 -35 37 c-38 41 -47 27 -14 -20 12 -16 20 -30 18 -31 -17 -11 -156 -48
-204 -54 l-60 -7 75 -7 c41 -4 91 -4 110 1 l35 9 -42 -2 c-23 -1 -39 1 -37 5
3 5 16 8 30 8 14 0 41 7 62 17 20 9 41 15 45 14 5 -1 6 3 3 8 -3 4 4 9 17 9
38 2 52 7 81 30 16 12 33 22 37 22 13 0 80 75 106 119 29 46 55 135 50 169 -2
19 -5 22 -9 12z"/>
<path d="M655 1709 c-22 -10 -56 -19 -75 -20 -19 0 -29 -3 -22 -6 24 -9 101 8
124 27 28 24 24 24 -27 -1z"/>
<path d="M1011 1234 c-1 -40 40 -200 72 -284 18 -46 26 -57 26 -39 1 25 -21
104 -40 144 -5 11 -20 63 -33 115 -15 59 -25 83 -25 64z"/>
<path d="M635 885 c-4 -31 -10 -43 -18 -39 -7 4 -9 4 -5 -1 4 -4 1 -22 -7 -40
-22 -53 -22 -89 0 -112 31 -32 93 -62 117 -55 22 5 22 6 -2 15 -41 17 -120 68
-120 78 0 6 14 39 30 74 30 64 38 109 21 119 -5 3 -12 -14 -16 -39z"/>
</g>
</svg>
